<?xml version="1.0" ?><svg data-name="Layer 1" id="Layer_1" viewBox="0 0 512 512" xmlns="http://www.w3.org/2000/svg">
<path d="M300.87,260.4H362A161.42,161.42,0,0,0,350.29,211Z" fill="#FFFFFF"/>
<path d="M230.33,186.92a90.83,90.83,0,0,1,30.86,18.82l50.95-51a163.42,163.42,0,0,0-28.06-21.62Z" fill="#FFFFFF"/>
<path d="M271.63,327.7l25.43,25.42,25.71,25.71A161.69,161.69,0,0,0,362,284.1H289.69A90.21,90.21,0,0,1,271.63,327.7Z" fill="#FFFFFF"/>
<path d="M271.84,217.42a90.44,90.44,0,0,1,15.85,33.82l55.48-55.46A163.57,163.57,0,0,0,323,166.23Z" fill="#FFFFFF"/>
<path d="M410.4,51.58a11.86,11.86,0,0,0-11.85-11.85H326.73a11.81,11.81,0,0,0-8.37,3.48l-72.88,72.87a159.87,159.87,0,0,0-34.2-6.39V182c.45.06.87.22,1.33.29L242.93,152c.16-.15.37-.2.53-.35l88.18-88.19h66.91A11.85,11.85,0,0,0,410.4,51.58Z" fill="#FFFFFF"/>
<path d="M386.46,98.09a11.85,11.85,0,0,0-11.85-11.85H336a11.85,11.85,0,0,0,0,23.7h38.57A11.85,11.85,0,0,0,386.46,98.09Z" fill="#FFFFFF"/>
<path d="M463.71,279.2h-52a11.85,11.85,0,0,0,0,23.7h52a11.85,11.85,0,1,0,0-23.7Z" fill="#FFFFFF"/>
<path d="M437.7,318.67h-26a11.85,11.85,0,0,0,0,23.7h26a11.85,11.85,0,1,0,0-23.7Z" fill="#FFFFFF"/>
<path d="M381.64,409.09H319.27l-13.4-13.4.13-.1-51.13-51.13A91,91,0,1,1,187.57,182V109.69C103.2,115.77,36.44,186.36,36.44,272.25c0,89.88,73.12,163,163,163a161.85,161.85,0,0,0,87.13-25.35L306,429.32a11.83,11.83,0,0,0,8.38,3.48h67.28a11.86,11.86,0,0,0,0-23.71Z" fill="#FFFFFF"/>
<path d="M359.87,448.57H317.46a11.85,11.85,0,1,0,0,23.7h42.41a11.85,11.85,0,1,0,0-23.7Z" fill="#FFFFFF"/></svg>